<svg width="169" height="70" viewBox="0 0 169 70" fill="none" xmlns="http://www.w3.org/2000/svg">
<path d="M3.18164 48.5227L5.568 44.1477H18.693" stroke="#0076D2"/>
<path d="M1.98828 48.2273C2.81031 48.2273 3.47735 48.8936 3.47754 49.7156C3.47754 50.5377 2.81043 51.2048 1.98828 51.2048C1.16629 51.2046 0.5 50.5376 0.5 49.7156C0.500192 48.8937 1.16641 48.2275 1.98828 48.2273Z" stroke="#0076D2"/>
<ellipse cx="9.14782" cy="39.375" rx="1.98864" ry="1.98864" fill="#0076D2"/>
<path d="M10.7388 39.375H19.8865" stroke="#0076D2"/>
<ellipse cx="17.8978" cy="18.6932" rx="1.98864" ry="1.98864" fill="#FABA00"/>
<path d="M9.54541 18.6932H17.1022" stroke="#FABA00"/>
<path d="M9.14795 15.1136H20.2843L21.8752 12.3295" stroke="#FABA00"/>
<path d="M22.6699 9.25C23.492 9.25 24.159 9.91629 24.1592 10.7383C24.1592 11.5604 23.4921 12.2275 22.6699 12.2275C21.8479 12.2273 21.1816 11.5603 21.1816 10.7383C21.1818 9.91641 21.8481 9.25019 22.6699 9.25Z" stroke="#FABA00"/>
<path d="M17.1021 25.0568L23.4657 19.8864H27.8407" stroke="#FABA00"/>
<path d="M29.0337 18.7955C29.8557 18.7955 30.5228 19.4618 30.5229 20.2838C30.5229 21.1059 29.8558 21.773 29.0337 21.773C28.2117 21.7728 27.5454 21.1058 27.5454 20.2838C27.5456 19.4619 28.2118 18.7957 29.0337 18.7955Z" stroke="#FABA00"/>
<path d="M22.6705 36.1932H13.125L7.95459 33.0114" stroke="#0076D2"/>
<path d="M6.76123 30.7273C7.58326 30.7273 8.2503 31.3936 8.25049 32.2156C8.25049 33.0377 7.58338 33.7048 6.76123 33.7048C5.93924 33.7046 5.27295 33.0376 5.27295 32.2156C5.27314 31.3937 5.93936 30.7275 6.76123 30.7273Z" stroke="#0076D2"/>
<path d="M41.7612 53C42.5833 53 43.2503 53.6663 43.2505 54.4883C43.2505 55.3104 42.5834 55.9775 41.7612 55.9775C40.9392 55.9773 40.2729 55.3103 40.2729 54.4883C40.2731 53.6664 40.9394 53.0002 41.7612 53Z" stroke="#0076D2"/>
<path d="M24.6592 60.0568H37.3865L40.5683 55.6818" stroke="#0076D2"/>
<ellipse cx="20.284" cy="68.0113" rx="1.98864" ry="1.98864" fill="#0076D2"/>
<path d="M14.7158 55.6818V65.2273L18.6931 67.6136" stroke="#0076D2"/>
<path d="M10.7383 61.75C11.5603 61.75 12.2273 62.4163 12.2275 63.2383C12.2275 64.0604 11.5604 64.7275 10.7383 64.7275C9.91629 64.7273 9.25 64.0603 9.25 63.2383C9.25019 62.4164 9.91641 61.7502 10.7383 61.75Z" stroke="#0076D2"/>
<path d="M11.1362 61.6477V56.0795" stroke="#0076D2"/>
<path d="M40.568 35.7955L31.0226 33.0114C29.8789 32.2101 28.1227 32.6318 26.3859 32.319L16.0061 30.4762C12.3615 29.803 9.40906 28.3473 7.14866 26.1093C4.88341 23.8206 3.58793 20.9786 3.26223 17.5833C2.97056 14.5427 3.47063 11.7586 4.76245 9.23096C6.10494 6.69846 8.05592 4.64461 10.6154 3.06938C13.2207 1.43861 16.2716 0.455509 19.7683 0.120087C23.6704 -0.254225 27.2473 0.246514 30.499 1.6223C33.7965 2.94256 36.2075 4.88484 37.732 7.44917C37.3537 8.30374 36.6714 9.18748 35.6849 10.1004C34.7443 10.9578 33.6854 11.6475 32.508 12.1696C29.6117 8.10027 25.503 6.32083 20.1819 6.83126C17.04 7.13265 14.5586 8.18896 12.7378 10.0002C10.9121 11.7608 10.1208 13.9079 10.3639 16.4418C10.7528 20.4959 13.6275 23.0074 18.9882 23.9763L28.1913 25.5484C31.8816 26.1661 34.8668 27.6953 37.1466 30.136C38.6537 31.7193 39.3748 33.0114 40.568 35.7955Z" fill="url(#paint0_linear_9812_5186)"/>
<path d="M4.21352 49.6591C5.53885 49.8299 7.21638 49.969 9.24609 50.0762C11.2974 50.1373 13.2673 50.1322 15.1557 50.0609C15.016 46.3978 15.8529 42.6298 17.6663 38.757C19.0049 35.8985 20.7117 33.6341 22.7868 31.9637C24.8835 30.2472 27.1684 29.2091 29.6416 28.8495C32.1364 28.4437 33.775 28.5628 36.1724 29.6854C38.6013 31.2358 38.7336 31.7785 39.752 33.6627C40.59 35.2131 41.2866 37.5181 41.3854 39.5881C41.4842 41.658 40.9877 43.6866 39.969 46.3817C38.2036 51.1222 31.823 56.9826 23.0899 56.6904C24.0069 58.6937 25.7999 59.6828 28.5201 60.9566C29.8571 61.5826 31.2805 62.0243 32.7902 62.2816C34.3 62.5388 35.8284 62.6361 37.3755 62.5736C37.8296 63.4046 37.9805 64.4028 37.8283 65.5682C37.7437 66.7091 37.4856 67.7406 37.0538 68.6627C35.1221 68.8263 33.1846 68.7622 31.2413 68.4706C29.2979 68.1789 27.3811 67.5905 25.4908 66.7054L25.4217 66.673C23.0242 65.5504 20.9824 64.0884 19.2963 62.287C17.6779 60.461 16.6025 58.4959 16.0701 56.3915C13.954 56.4687 11.7335 56.4689 9.40851 56.392C7.1512 56.2907 5.25688 56.1344 3.72554 55.9233C3.29011 54.9324 3.11612 53.9234 3.20358 52.8963C3.24494 51.8476 3.58158 50.7685 4.21352 49.6591ZM22.7868 40.0263C21.2539 43.2998 21.4108 46.9083 21.4565 49.5718C25.4338 49.1741 26.1381 49.141 28.3445 48.1505C30.5726 47.1139 32.1927 46.0552 33.2174 43.6866C33.9139 42.0766 33.994 40.9727 33.7861 39.2309C33.5224 37.0227 32.6354 35.2131 31.3997 34.0604C30.275 33.0114 29.3973 32.7545 27.443 33.8068C25.5348 34.8807 23.8878 37.675 22.7868 40.0263Z" fill="url(#paint1_linear_9812_5186)"/>
<path d="M157.797 8.94141H151.035V5.68359H168.273V8.94141H161.512V24H157.797V8.94141Z" fill="#0076D2"/>
<path d="M130.316 5.68359H139.633C141.039 5.68359 142.258 5.83203 143.289 6.12891C144.32 6.41797 145.176 6.83984 145.855 7.39453C146.535 7.94922 147.039 8.625 147.367 9.42188C147.703 10.2188 147.871 11.1211 147.871 12.1289C147.871 12.8086 147.789 13.457 147.625 14.0742C147.461 14.6836 147.207 15.2461 146.863 15.7617C146.527 16.2773 146.102 16.7383 145.586 17.1445C145.07 17.543 144.465 17.875 143.77 18.1406L147.754 24H143.207L139.762 18.7969H139.656L134.031 18.7852V24H130.316V5.68359ZM139.727 15.5742C140.43 15.5742 141.043 15.4922 141.566 15.3281C142.098 15.1641 142.539 14.9336 142.891 14.6367C143.25 14.3398 143.516 13.9805 143.688 13.5586C143.867 13.1289 143.957 12.6523 143.957 12.1289C143.957 11.1055 143.605 10.3164 142.902 9.76172C142.199 9.19922 141.141 8.91797 139.727 8.91797H134.031V15.5742H139.727Z" fill="#0076D2"/>
<path d="M114.672 5.68359H118.609L127.469 24H123.566L122.102 20.918H111.402L109.984 24H106.07L114.672 5.68359ZM120.637 17.8594L116.676 9.53906L112.82 17.8594H120.637Z" fill="#0076D2"/>
<path d="M82.4688 5.68359H86.1836L92.8398 12.3633L99.4961 5.68359H103.211V24H99.4961V10.8281L92.8398 17.2383L86.1836 10.8281V24H82.4688V5.68359Z" fill="#0076D2"/>
<path d="M59.3125 18.5508C59.9766 18.9258 60.6484 19.2656 61.3281 19.5703C62.0156 19.8672 62.7266 20.1211 63.4609 20.332C64.1953 20.5352 64.9648 20.6914 65.7695 20.8008C66.582 20.9102 67.4453 20.9648 68.3594 20.9648C69.4609 20.9648 70.3984 20.8945 71.1719 20.7539C71.9453 20.6055 72.5742 20.4062 73.0586 20.1562C73.5508 19.8984 73.9062 19.5938 74.125 19.2422C74.3516 18.8906 74.4648 18.5078 74.4648 18.0938C74.4648 17.4297 74.1875 16.9062 73.6328 16.5234C73.0781 16.1328 72.2227 15.9375 71.0664 15.9375C70.5586 15.9375 70.0234 15.9727 69.4609 16.043C68.8984 16.1055 68.3281 16.1758 67.75 16.2539C67.1797 16.332 66.6133 16.4062 66.0508 16.4766C65.4961 16.5391 64.9727 16.5703 64.4805 16.5703C63.6602 16.5703 62.8711 16.4648 62.1133 16.2539C61.3633 16.043 60.6953 15.7266 60.1094 15.3047C59.5312 14.8828 59.0703 14.3555 58.7266 13.7227C58.3828 13.0898 58.2109 12.3516 58.2109 11.5078C58.2109 11.0078 58.2773 10.5117 58.4102 10.0195C58.5508 9.52734 58.7695 9.05859 59.0664 8.61328C59.3711 8.16016 59.7617 7.74219 60.2383 7.35938C60.7148 6.96875 61.2891 6.63281 61.9609 6.35156C62.6406 6.07031 63.4219 5.85156 64.3047 5.69531C65.1953 5.53125 66.207 5.44922 67.3398 5.44922C68.1602 5.44922 68.9844 5.49609 69.8125 5.58984C70.6406 5.67578 71.4453 5.80078 72.2266 5.96484C73.0156 6.12891 73.7734 6.32812 74.5 6.5625C75.2266 6.78906 75.9023 7.04297 76.5273 7.32422L74.8984 10.3242C74.3828 10.0977 73.8281 9.89062 73.2344 9.70312C72.6406 9.50781 72.0195 9.33984 71.3711 9.19922C70.7227 9.05859 70.0508 8.94922 69.3555 8.87109C68.668 8.78516 67.9648 8.74219 67.2461 8.74219C66.2227 8.74219 65.3789 8.81641 64.7148 8.96484C64.0586 9.11328 63.5352 9.30469 63.1445 9.53906C62.7539 9.76562 62.4805 10.0234 62.3242 10.3125C62.1758 10.5938 62.1016 10.875 62.1016 11.1562C62.1016 11.7031 62.3477 12.1523 62.8398 12.5039C63.332 12.8477 64.082 13.0195 65.0898 13.0195C65.4961 13.0195 65.9609 12.9922 66.4844 12.9375C67.0156 12.875 67.5703 12.8086 68.1484 12.7383C68.7344 12.668 69.3281 12.6055 69.9297 12.5508C70.5391 12.4883 71.1289 12.457 71.6992 12.457C72.7773 12.457 73.7305 12.5781 74.5586 12.8203C75.3945 13.0625 76.0938 13.4102 76.6562 13.8633C77.2188 14.3086 77.6445 14.8516 77.9336 15.4922C78.2227 16.125 78.3672 16.8359 78.3672 17.625C78.3672 18.6797 78.1211 19.6211 77.6289 20.4492C77.1445 21.2695 76.4492 21.9648 75.543 22.5352C74.6445 23.0977 73.5586 23.5273 72.2852 23.8242C71.0117 24.1133 69.5938 24.2578 68.0312 24.2578C67 24.2578 65.9922 24.1914 65.0078 24.0586C64.0234 23.9336 63.0781 23.7539 62.1719 23.5195C61.2734 23.2773 60.4141 22.9922 59.5938 22.6641C58.7812 22.3281 58.0273 21.9609 57.332 21.5625L59.3125 18.5508Z" fill="#0076D2"/>
<path d="M139.672 37.5781H144.625L153.5 46.4844L162.375 37.5781H167.328V62H162.375V44.4375L153.5 52.9844L144.625 44.4375V62H139.672V37.5781Z" fill="#0076D2"/>
<path d="M118.797 37.5781H124.047L135.859 62H130.656L128.703 57.8906H114.438L112.547 62H107.328L118.797 37.5781ZM126.75 53.8125L121.469 42.7188L116.328 53.8125H126.75Z" fill="#0076D2"/>
<path d="M90.7812 49.5938L81.3906 37.5781H87.4531L93.9375 45.9844L100.453 37.5781H106.422L96.8594 49.5469L106.75 62H100.672L93.7188 53.2188L86.6094 62H80.625L90.7812 49.5938Z" fill="#0076D2"/>
<path d="M57.2188 37.5781H78.0156V41.9219H62.1719V46.7969H76.2031V50.875H62.1719V57.6719H78.3438V62H57.2188V37.5781Z" fill="#0076D2"/>
<defs>
<linearGradient id="paint0_linear_9812_5186" x1="22.2725" y1="26.6477" x2="35.7953" y2="35.7955" gradientUnits="userSpaceOnUse">
<stop stop-color="#0076D2"/>
<stop offset="1" stop-color="#003D6C"/>
</linearGradient>
<linearGradient id="paint1_linear_9812_5186" x1="34.9998" y1="36.1932" x2="33.0112" y2="28.6364" gradientUnits="userSpaceOnUse">
<stop stop-color="#FABA00"/>
<stop offset="1" stop-color="#FFE084"/>
</linearGradient>
</defs>
</svg>
